<svg xmlns="http://www.w3.org/2000/svg" width="1200" height="630" aria-label="Todo Print: design and print exact-size A4 todo lists" role="img" viewBox="0 0 1200 630"><rect width="1200" height="630" fill="#111"/><g transform="translate(690 78)"><rect width="440" height="474" x="18" y="18" fill="#000" fill-opacity=".45" rx="6"/><rect width="440" height="474" fill="#fff" rx="6"/><g stroke="#d6d6d6" stroke-width="2"><path d="M150 0v474M295 0v474"/></g><g fill="#111" font-family="Inter,Avenir Next,Segoe UI,system-ui,Arial,sans-serif" font-size="17" font-weight="600"><text x="22" y="46">Monday</text><text x="167" y="46">Tuesday</text><text x="312" y="46">Wednesday</text></g><g fill="none" stroke="#111" stroke-width="2"><rect width="15" height="15" x="22" y="72" rx="3"/><rect width="15" height="15" x="22" y="112" rx="3"/><rect width="15" height="15" x="22" y="152" rx="3"/><rect width="15" height="15" x="22" y="192" rx="3"/><rect width="15" height="15" x="167" y="72" rx="3"/><rect width="15" height="15" x="167" y="112" rx="3"/><rect width="15" height="15" x="167" y="152" rx="3"/><rect width="15" height="15" x="312" y="72" rx="3"/><rect width="15" height="15" x="312" y="112" rx="3"/><path d="M25 79.5l4 4 7-8M170 119.5l4 4 7-8M315 79.5l4 4 7-8"/></g><g fill="#9a9a9a"><rect width="86" height="8" x="47" y="76" rx="4"/><rect width="70" height="8" x="47" y="116" rx="4"/><rect width="92" height="8" x="47" y="156" rx="4"/><rect width="60" height="8" x="47" y="196" rx="4"/><rect width="78" height="8" x="192" y="76" rx="4"/><rect width="88" height="8" x="192" y="116" rx="4"/><rect width="64" height="8" x="192" y="156" rx="4"/><rect width="82" height="8" x="337" y="76" rx="4"/><rect width="70" height="8" x="337" y="116" rx="4"/></g></g><g font-family="Inter,Avenir Next,Segoe UI,system-ui,Arial,sans-serif"><text x="80" y="248" fill="#fff" font-size="84" font-weight="700">Todo Print</text><text x="80" y="316" fill="#fff" font-size="32" font-weight="600">Plans that end up on paper</text><text x="80" y="376" fill="#a0a0a0" font-size="26">Visual or Markdown editor, exact-size A4.</text><text x="80" y="418" fill="#a0a0a0" font-size="26">Everything stays in your browser.</text><text x="80" y="552" fill="#6e6e6e" font-size="24">todoprint.martonpaulo.com</text></g></svg>